<mxfile host="app.diagrams.net" modified="2023-06-24T09:05:03.582Z" agent="Mozilla/5.0 (Windows NT 10.0; Win64; x64) AppleWebKit/537.36 (KHTML, like Gecko) Chrome/114.0.0.0 Safari/537.36 Edg/114.0.1823.43" etag="fUtkejHg0t_xT8_3pzLv" version="21.5.0" type="github">
  <diagram name="Page-1" id="bNrdOksTGrRGDZkWGMtK">
    <mxGraphModel dx="1035" dy="596" grid="1" gridSize="10" guides="1" tooltips="1" connect="1" arrows="1" fold="1" page="1" pageScale="1" pageWidth="1169" pageHeight="827" math="0" shadow="0">
      <root>
        <mxCell id="0" />
        <mxCell id="1" parent="0" />
        <mxCell id="h8kINjSsL8_Qf3I2a2BR-20" value="Apply intelligence&amp;nbsp;" style="text;strokeColor=none;align=center;fillColor=none;html=1;verticalAlign=middle;whiteSpace=wrap;rounded=0;fontColor=#143642;" vertex="1" parent="1">
          <mxGeometry x="340" y="10" width="160" height="30" as="geometry" />
        </mxCell>
        <mxCell id="h8kINjSsL8_Qf3I2a2BR-21" value="" style="group" vertex="1" connectable="0" parent="1">
          <mxGeometry x="60" y="40" width="840" height="270" as="geometry" />
        </mxCell>
        <mxCell id="h8kINjSsL8_Qf3I2a2BR-2" value="M" style="verticalLabelPosition=middle;shadow=0;dashed=0;align=center;html=1;verticalAlign=middle;strokeWidth=1;shape=ellipse;aspect=fixed;fontSize=35;" vertex="1" parent="h8kINjSsL8_Qf3I2a2BR-21">
          <mxGeometry x="40" y="80" width="100" height="100" as="geometry" />
        </mxCell>
        <mxCell id="h8kINjSsL8_Qf3I2a2BR-3" value="G" style="dashed=0;outlineConnect=0;align=center;html=1;shape=mxgraph.pid.engines.gear;fontSize=45;" vertex="1" parent="h8kINjSsL8_Qf3I2a2BR-21">
          <mxGeometry x="660" y="80" width="100" height="100" as="geometry" />
        </mxCell>
        <mxCell id="h8kINjSsL8_Qf3I2a2BR-9" style="edgeStyle=orthogonalEdgeStyle;rounded=0;orthogonalLoop=1;jettySize=auto;html=1;entryX=0;entryY=0.5;entryDx=0;entryDy=0;entryPerimeter=0;strokeColor=#A8201A;fontColor=#143642;fillColor=#FAE5C7;" edge="1" parent="h8kINjSsL8_Qf3I2a2BR-21" source="h8kINjSsL8_Qf3I2a2BR-2" target="h8kINjSsL8_Qf3I2a2BR-3">
          <mxGeometry relative="1" as="geometry" />
        </mxCell>
        <mxCell id="h8kINjSsL8_Qf3I2a2BR-5" value="Temp Senor" style="verticalLabelPosition=bottom;sketch=0;html=1;verticalAlign=top;align=center;points=[[0,0.5,0],[0.125,0.25,0],[0.25,0,0],[0.5,0,0],[0.75,0,0],[0.875,0.25,0],[1,0.5,0],[0.875,0.75,0],[0.75,1,0],[0.5,1,0],[0.125,0.75,0]];pointerEvents=1;shape=mxgraph.cisco_safe.compositeIcon;bgIcon=mxgraph.cisco_safe.design.blank_device;resIcon=mxgraph.cisco_safe.design.sensor;" vertex="1" parent="h8kINjSsL8_Qf3I2a2BR-21">
          <mxGeometry x="90" y="219" width="50" height="50" as="geometry" />
        </mxCell>
        <mxCell id="h8kINjSsL8_Qf3I2a2BR-11" style="edgeStyle=orthogonalEdgeStyle;rounded=0;orthogonalLoop=1;jettySize=auto;html=1;entryX=0.5;entryY=0;entryDx=0;entryDy=0;entryPerimeter=0;strokeColor=#A8201A;fontColor=#143642;fillColor=#FAE5C7;" edge="1" parent="h8kINjSsL8_Qf3I2a2BR-21" source="h8kINjSsL8_Qf3I2a2BR-2" target="h8kINjSsL8_Qf3I2a2BR-5">
          <mxGeometry relative="1" as="geometry" />
        </mxCell>
        <mxCell id="h8kINjSsL8_Qf3I2a2BR-6" value="Vibration Sensor" style="image;aspect=fixed;perimeter=ellipsePerimeter;html=1;align=center;shadow=0;dashed=0;fontColor=#4277BB;labelBackgroundColor=default;fontSize=12;spacingTop=3;image=img/lib/ibm/users/sensor.svg;strokeColor=#0F8B8D;fillColor=#FAE5C7;" vertex="1" parent="h8kINjSsL8_Qf3I2a2BR-21">
          <mxGeometry y="219" width="50" height="50" as="geometry" />
        </mxCell>
        <mxCell id="h8kINjSsL8_Qf3I2a2BR-13" style="edgeStyle=orthogonalEdgeStyle;rounded=0;orthogonalLoop=1;jettySize=auto;html=1;entryX=0.5;entryY=0;entryDx=0;entryDy=0;strokeColor=#A8201A;fontColor=#143642;fillColor=#FAE5C7;" edge="1" parent="h8kINjSsL8_Qf3I2a2BR-21" source="h8kINjSsL8_Qf3I2a2BR-2" target="h8kINjSsL8_Qf3I2a2BR-6">
          <mxGeometry relative="1" as="geometry" />
        </mxCell>
        <mxCell id="h8kINjSsL8_Qf3I2a2BR-7" value="Data Record" style="shape=image;html=1;verticalAlign=top;verticalLabelPosition=bottom;labelBackgroundColor=#ffffff;imageAspect=0;aspect=fixed;image=https://cdn2.iconfinder.com/data/icons/business-and-education-1/512/150_Sensor_body_Data_Human_Science_technology_smart-128.png;strokeColor=#0F8B8D;fontColor=#143642;fillColor=#FAE5C7;imageBackground=default;" vertex="1" parent="h8kINjSsL8_Qf3I2a2BR-21">
          <mxGeometry x="292" width="128" height="128" as="geometry" />
        </mxCell>
        <mxCell id="h8kINjSsL8_Qf3I2a2BR-10" value="A" style="verticalLabelPosition=middle;shadow=0;dashed=0;align=center;html=1;verticalAlign=middle;strokeWidth=1;shape=ellipse;aspect=fixed;fontSize=50;" vertex="1" parent="h8kINjSsL8_Qf3I2a2BR-21">
          <mxGeometry x="190" y="220" width="50" height="50" as="geometry" />
        </mxCell>
        <mxCell id="h8kINjSsL8_Qf3I2a2BR-12" style="edgeStyle=orthogonalEdgeStyle;rounded=0;orthogonalLoop=1;jettySize=auto;html=1;exitX=0.5;exitY=1;exitDx=0;exitDy=0;entryX=0.5;entryY=0;entryDx=0;entryDy=0;strokeColor=#A8201A;fontColor=#143642;fillColor=#FAE5C7;" edge="1" parent="h8kINjSsL8_Qf3I2a2BR-21" source="h8kINjSsL8_Qf3I2a2BR-2" target="h8kINjSsL8_Qf3I2a2BR-10">
          <mxGeometry relative="1" as="geometry" />
        </mxCell>
        <mxCell id="h8kINjSsL8_Qf3I2a2BR-14" value="Generator" style="text;strokeColor=none;align=center;fillColor=none;html=1;verticalAlign=middle;whiteSpace=wrap;rounded=0;fontColor=#143642;" vertex="1" parent="h8kINjSsL8_Qf3I2a2BR-21">
          <mxGeometry x="680" y="189" width="60" height="30" as="geometry" />
        </mxCell>
        <mxCell id="h8kINjSsL8_Qf3I2a2BR-15" value="A" style="verticalLabelPosition=middle;shadow=0;dashed=0;align=center;html=1;verticalAlign=middle;strokeWidth=1;shape=ellipse;aspect=fixed;fontSize=50;" vertex="1" parent="h8kINjSsL8_Qf3I2a2BR-21">
          <mxGeometry x="780" y="78" width="50" height="50" as="geometry" />
        </mxCell>
        <mxCell id="h8kINjSsL8_Qf3I2a2BR-16" value="" style="pointerEvents=1;verticalLabelPosition=bottom;shadow=0;dashed=0;align=center;html=1;verticalAlign=top;shape=mxgraph.electrical.signal_sources.source;aspect=fixed;points=[[0.5,0,0],[1,0.5,0],[0.5,1,0],[0,0.5,0]];elSignalType=ideal;" vertex="1" parent="h8kINjSsL8_Qf3I2a2BR-21">
          <mxGeometry x="440" y="100" width="60" height="60" as="geometry" />
        </mxCell>
        <mxCell id="h8kINjSsL8_Qf3I2a2BR-17" value="Voltameter" style="pointerEvents=1;verticalLabelPosition=bottom;shadow=0;dashed=0;align=center;html=1;verticalAlign=top;shape=mxgraph.electrical.signal_sources.source;aspect=fixed;points=[[0.5,0,0],[1,0.5,0],[0.5,1,0],[0,0.5,0]];elSignalType=ac;" vertex="1" parent="h8kINjSsL8_Qf3I2a2BR-21">
          <mxGeometry x="780" y="140" width="60" height="60" as="geometry" />
        </mxCell>
        <mxCell id="h8kINjSsL8_Qf3I2a2BR-18" value="Machine learning model" style="sketch=0;outlineConnect=0;fontColor=#ffffff;fillColor=#60a917;strokeColor=#2D7600;dashed=0;verticalLabelPosition=bottom;verticalAlign=top;align=center;html=1;fontSize=12;fontStyle=0;aspect=fixed;pointerEvents=1;shape=mxgraph.aws4.sagemaker_model;" vertex="1" parent="h8kINjSsL8_Qf3I2a2BR-21">
          <mxGeometry x="317" y="165" width="78" height="78" as="geometry" />
        </mxCell>
      </root>
    </mxGraphModel>
  </diagram>
</mxfile>
